<?xml version="1.0" encoding="UTF-8" standalone="no"?>
<!DOCTYPE svg PUBLIC "-//W3C//DTD SVG 1.1//EN" "http://www.w3.org/Graphics/SVG/1.1/DTD/svg11.dtd">
<svg width="100%" height="100%" viewBox="0 0 350 130" version="1.1" xmlns="http://www.w3.org/2000/svg" xmlns:xlink="http://www.w3.org/1999/xlink" xml:space="preserve" xmlns:serif="http://www.serif.com/" style="fill-rule:evenodd;clip-rule:evenodd;stroke-linejoin:round;stroke-miterlimit:2;">
    <g transform="matrix(1,0,0,1,50.6221,0)">
        <g id="JFS-Tech-2023-Logo" serif:id="JFS Tech 2023 Logo" transform="matrix(0.062118,0,0,0.062118,-0.000101984,51.7252)">
            <g transform="matrix(12.6582,0,0,12.6582,0.00164177,-0.00116924)">
                <path d="M79,39.5C79,61.316 61.315,79 39.5,79C17.685,79 -0,61.316 -0,39.5C-0,17.685 17.685,0 39.5,0C61.315,0 79,17.685 79,39.5Z" style="fill:rgb(23,86,208);fill-rule:nonzero;"/>
            </g>
            <g transform="matrix(12.6582,0,0,12.6582,0.00164177,-0.00116924)">
                <path d="M27.581,7.539L27.794,8.271C15.194,13.007 6.229,25.169 6.229,39.424C6.229,57.8 21.125,72.695 39.5,72.695C57.876,72.695 72.771,57.8 72.771,39.424C72.771,25.242 63.898,13.133 51.4,8.344L51.657,7.629C64.448,12.523 73.531,24.913 73.531,39.424C73.531,58.219 58.295,73.455 39.5,73.455C20.705,73.455 5.469,58.219 5.469,39.424C5.469,24.822 14.666,12.369 27.581,7.539Z" style="fill:rgb(255,199,0);fill-rule:nonzero;"/>
            </g>
            <g transform="matrix(12.6582,0,0,12.6582,0.00164177,-0.00116924)">
                <path d="M43.023,5.232L43.192,5.232C43.297,5.232 43.381,5.248 43.443,5.284C43.499,5.317 43.537,5.353 43.555,5.396C43.577,5.447 43.585,5.575 43.585,5.78L43.585,8.601C43.585,8.8 43.578,8.924 43.556,8.971L43.556,8.972C43.532,9.028 43.501,9.068 43.46,9.091L43.459,9.091C43.39,9.131 43.301,9.149 43.192,9.149L42.981,9.149L42.981,9.403L45.359,9.403L45.359,9.149L45.149,9.149C45.044,9.149 44.959,9.133 44.897,9.097C44.841,9.064 44.803,9.028 44.783,8.984C44.761,8.933 44.753,8.805 44.753,8.601L44.753,7.341L46.131,7.341L46.131,8.601C46.131,8.8 46.123,8.924 46.102,8.971L46.101,8.971C46.077,9.027 46.044,9.068 46.002,9.091L46,9.091C45.934,9.131 45.845,9.149 45.734,9.149L45.526,9.149L45.526,9.403L47.902,9.403L47.902,9.149L47.695,9.149C47.589,9.149 47.504,9.133 47.44,9.096C47.384,9.064 47.346,9.028 47.327,8.985C47.306,8.934 47.298,8.806 47.298,8.601L47.298,5.78C47.298,5.581 47.305,5.457 47.327,5.41C47.351,5.354 47.383,5.313 47.426,5.29L47.428,5.289C47.494,5.25 47.583,5.232 47.695,5.232L47.902,5.232L47.902,4.978L45.526,4.978L45.526,5.232L45.734,5.232C45.84,5.232 45.924,5.248 45.987,5.285C46.044,5.317 46.082,5.353 46.101,5.396C46.123,5.447 46.131,5.575 46.131,5.78L46.131,6.926L44.753,6.926L44.753,5.78C44.753,5.581 44.76,5.457 44.781,5.41C44.806,5.354 44.838,5.313 44.881,5.29L44.882,5.29C44.95,5.25 45.039,5.232 45.149,5.232L45.359,5.232L45.359,4.978L42.771,4.978L42.763,5.037C42.757,5.081 42.742,5.15 42.7,5.177C42.655,5.205 42.584,5.19 42.559,5.19C42.51,5.19 42.395,5.152 42.214,5.081C41.87,4.947 41.543,4.88 41.234,4.88C40.813,4.88 40.416,4.984 40.042,5.192C39.667,5.401 39.37,5.694 39.149,6.071C38.929,6.449 38.819,6.848 38.819,7.269C38.819,7.669 38.919,8.046 39.117,8.4C39.317,8.756 39.6,9.028 39.968,9.218C40.332,9.406 40.749,9.501 41.218,9.501C41.576,9.501 41.89,9.442 42.158,9.326C42.425,9.21 42.684,9.023 42.931,8.765L42.95,8.745L42.95,8.348L42.829,8.303C42.587,8.584 42.358,8.783 42.139,8.898C41.925,9.01 41.688,9.067 41.43,9.067C41.119,9.067 40.864,8.992 40.669,8.839C40.472,8.686 40.33,8.458 40.237,8.158C40.142,7.849 40.094,7.507 40.094,7.13C40.094,6.75 40.159,6.405 40.289,6.094C40.386,5.858 40.542,5.666 40.755,5.52C40.966,5.375 41.199,5.302 41.452,5.302C41.756,5.302 42.029,5.4 42.269,5.596C42.512,5.794 42.675,6.079 42.764,6.451L42.777,6.503L43.023,6.503L43.023,5.232ZM38.816,4.978L31.112,4.978L31.112,6.276L31.359,6.276L31.369,6.217C31.414,5.919 31.522,5.688 31.695,5.527C31.816,5.414 32.011,5.362 32.278,5.362L32.519,5.362L32.519,8.601C32.519,8.8 32.513,8.924 32.49,8.971C32.466,9.027 32.434,9.068 32.391,9.091L32.39,9.091C32.321,9.131 32.233,9.149 32.123,9.149L31.912,9.149L31.912,9.403L34.294,9.403L34.294,9.149L34.083,9.149C33.976,9.149 33.89,9.133 33.829,9.097C33.773,9.064 33.734,9.028 33.714,8.984C33.692,8.933 33.684,8.805 33.684,8.601L33.684,5.358L35.306,5.358C35.428,5.358 35.524,5.382 35.594,5.434L35.595,5.434C35.639,5.465 35.669,5.509 35.685,5.565C35.695,5.61 35.694,5.597 35.694,5.78L35.694,8.601C35.694,8.8 35.687,8.924 35.665,8.971L35.665,8.972C35.642,9.028 35.611,9.068 35.569,9.091L35.568,9.091C35.5,9.131 35.411,9.149 35.301,9.149L35.09,9.149L35.09,9.403L38.924,9.403L38.989,8.943C38.846,8.819 38.723,8.677 38.618,8.515C38.548,8.612 38.468,8.696 38.378,8.765C38.148,8.942 37.84,9.029 37.457,9.029L37.201,9.029C37.096,9.029 37.019,9.017 36.971,8.988C36.931,8.963 36.903,8.932 36.888,8.893C36.869,8.843 36.861,8.706 36.861,8.484L36.861,7.345C37.019,7.35 37.143,7.374 37.231,7.418C37.328,7.466 37.411,7.562 37.484,7.703C37.561,7.852 37.612,8.044 37.636,8.279L37.643,8.34L37.892,8.34L37.892,5.958L37.642,5.958L37.636,6.02C37.604,6.338 37.531,6.58 37.414,6.743C37.304,6.897 37.125,6.97 36.879,6.97L36.861,6.97L36.861,5.362L37.236,5.362C37.55,5.362 37.765,5.379 37.879,5.415L37.88,5.415C38.068,5.474 38.214,5.565 38.317,5.691C38.403,5.795 38.472,5.956 38.525,6.171C38.543,6.138 38.562,6.104 38.581,6.071C38.652,5.951 38.73,5.838 38.816,5.735L38.816,4.978Z" style="fill:white;fill-rule:nonzero;"/>
            </g>
            <g transform="matrix(12.6582,0,0,12.6582,0.00164177,-0.00116924)">
                <path d="M15.301,54.384C15.301,54.384 15.796,54.376 16.162,54.285C16.527,54.195 16.85,54.112 17.075,54.033C17.299,53.954 17.749,53.777 17.888,53.71C18.027,53.644 18.521,53.406 18.607,53.356C18.692,53.305 19.328,52.938 19.369,52.913C19.411,52.887 20.094,52.459 20.094,52.459C20.094,52.459 20.727,52.068 20.892,51.951C21.056,51.834 21.525,51.461 21.629,51.359C21.734,51.258 22.088,50.923 22.234,50.752C22.379,50.581 22.778,50.071 22.845,49.972C22.911,49.874 23.234,49.371 23.288,49.279C23.342,49.187 23.614,48.683 23.709,48.474C23.804,48.266 24.003,47.809 24.044,47.644C24.085,47.48 24.183,47.132 24.203,47.002C24.222,46.872 24.288,46.563 24.31,46.243C24.332,45.923 24.381,45.483 24.378,45.366C24.375,45.249 24.399,43.972 24.399,43.972L24.399,25.596C24.399,25.596 24.373,24.313 24.479,24.1C24.556,23.945 24.694,23.748 25.006,23.564C25.177,23.469 25.671,23.203 26.184,23.165C26.696,23.127 28.002,23.161 28.002,23.161C28.002,23.161 28.265,23.172 28.382,23.122C28.47,23.085 28.52,23.001 28.52,22.927C28.52,22.757 28.634,22.481 28.254,22.481L16.802,22.481C16.802,22.481 16.442,22.434 16.423,22.719C16.404,23.003 16.48,23.089 16.594,23.089L18.474,23.089C18.474,23.089 19.433,23.241 19.87,23.659C20.306,24.076 20.601,24.228 20.601,25.596L20.601,38.737L20.665,47.62L20.653,47.791L20.513,48.906C20.513,48.906 20.373,49.618 20.183,50.017C19.993,50.416 19.1,52.163 17.98,52.923C17.41,53.303 16.916,53.55 16.575,53.682C16.233,53.815 15.853,53.872 15.72,53.91C15.587,53.948 15.451,54.022 15.301,54.384Z" style="fill:rgb(255,199,0);fill-rule:nonzero;"/>
            </g>
            <g transform="matrix(12.6582,0,0,12.6582,0.00164177,-0.00116924)">
                <path d="M26.772,64.739C26.772,64.739 26.915,63.935 26.981,63.593C27.048,63.251 27.241,62.286 27.26,62.181C27.279,62.077 27.371,61.737 27.457,61.718C27.542,61.699 27.595,61.677 27.735,61.677L28.045,61.677C28.045,61.677 28.184,61.665 28.273,61.905C28.361,62.146 28.539,62.519 28.779,62.62C28.823,62.646 29.077,62.766 29.355,62.779C29.539,62.779 30.02,62.804 30.438,62.684C30.855,62.564 31.311,62.405 31.685,62.108C31.761,62.045 32.102,61.766 32.28,61.544C32.457,61.323 32.843,60.842 33.21,59.987C33.324,59.734 33.634,58.866 33.742,58.404C33.849,57.942 33.982,57.25 34.153,56.155C34.324,55.06 34.66,52.988 34.748,52.393C34.837,51.798 35.166,49.67 35.249,49.094C35.331,48.518 35.666,46.293 35.666,46.293L36.166,42.953C36.166,42.953 36.559,40.193 36.603,39.877C36.647,39.56 36.945,37.252 36.945,37.252L37.148,35.676C37.148,35.676 37.166,35.51 37.122,35.465C37.078,35.421 37.065,35.395 36.869,35.395L32.45,35.395C32.45,35.395 32.286,35.397 32.33,35.252C32.349,35.188 32.432,35.112 32.52,35.011C32.609,34.91 33.723,33.63 33.723,33.63C33.723,33.63 33.913,33.458 34.02,33.433C34.128,33.408 34.179,33.42 34.324,33.42L37.312,33.42C37.312,33.42 37.496,33.344 37.521,33.211C37.546,33.078 37.698,31.614 37.698,31.614C37.698,31.614 37.888,29.982 37.951,29.64C38.015,29.298 38.274,27.831 38.376,27.337C38.477,26.843 38.692,25.972 38.787,25.624C38.882,25.276 39.293,24.039 39.388,23.823C39.483,23.608 40.015,22.436 40.218,22.087C40.42,21.739 40.946,20.912 41.18,20.602C41.414,20.292 41.946,19.663 42.281,19.321C42.617,18.979 43.364,18.307 43.838,17.997C44.313,17.687 45.079,17.25 45.605,17.048C46.13,16.845 46.731,16.622 47.447,16.521C48.162,16.42 48.681,16.375 49.187,16.42C49.694,16.464 50.403,16.572 50.51,16.597C50.618,16.622 50.789,16.648 50.751,16.92C50.713,17.192 50.447,19.207 50.447,19.207L50.251,20.746C50.251,20.746 50.219,21.006 50.112,21.006C50.029,21.018 49.63,21.006 49.63,21.006C49.63,21.006 49.491,21.012 49.428,20.879C49.365,20.746 49.409,20.594 49.346,20.341C49.282,20.088 49.118,19.613 48.858,19.36C48.599,19.107 48.187,18.834 47.725,18.765C47.263,18.695 46.89,18.644 46.377,18.79C45.864,18.936 45.244,19.259 45.041,19.423C44.839,19.588 44.522,19.716 43.984,20.729C43.446,21.741 43.206,22.309 43.085,22.62C42.965,22.93 42.623,23.981 42.541,24.303C42.459,24.626 42.186,25.754 42.047,26.691C41.908,27.627 41.68,29.651 41.597,30.619C41.484,31.602 41.357,32.792 41.344,32.951C41.332,33.109 41.268,33.337 41.465,33.356C41.617,33.356 45.744,33.368 45.744,33.368L46.257,33.362C46.257,33.362 46.453,33.362 46.51,33.375C46.567,33.387 46.617,33.413 46.611,33.489C46.605,33.565 46.231,35.093 46.231,35.093C46.231,35.093 46.174,35.295 46.092,35.333C46.01,35.371 46.029,35.395 45.567,35.395L41.414,35.395C41.414,35.395 41.053,35.354 41.015,35.601C40.977,35.848 40.344,39.792 40.344,39.792L39.623,44.457C39.623,44.457 39.205,47.318 39.059,48.432C38.914,49.546 38.635,51.331 38.616,51.452C38.597,51.572 38.148,53.712 38.097,53.914C38.046,54.117 37.572,55.927 37.369,56.472C37.167,57.016 36.654,58.288 36.42,58.731C36.185,59.174 35.571,60.308 35.23,60.795C34.888,61.282 34.16,62.276 33.742,62.694C33.324,63.112 32.235,64.156 31.488,64.504C31.248,64.616 31.045,64.738 30.798,64.838C30.268,65.051 29.691,65.257 28.842,65.479C27.6,65.805 27.216,65.878 26.981,65.91C26.747,65.941 26.659,65.967 26.652,65.682C26.646,65.397 26.772,64.739 26.772,64.739Z" style="fill:rgb(255,199,0);fill-rule:nonzero;"/>
            </g>
            <g transform="matrix(12.6582,0,0,12.6582,0.00164177,-0.00116924)">
                <path d="M60.713,26.146L61.326,25.14L61.995,24.048C61.995,24.048 62.042,23.972 62.038,23.924C62.033,23.877 62.016,23.834 61.943,23.806L61.718,23.727C61.718,23.727 61.031,23.506 60.569,23.415C60.107,23.323 59.651,23.228 58.977,23.175C58.426,23.14 57.841,23.115 57.439,23.13C57.094,23.137 56.448,23.159 56.024,23.232C55.6,23.304 55.125,23.405 54.508,23.703C53.891,24 53.524,24.311 53.233,24.576C52.941,24.842 52.587,25.228 52.245,25.823C51.903,26.418 51.723,27.105 51.675,27.346C51.628,27.586 51.545,28.02 51.58,28.789C51.615,29.558 51.751,30.264 51.818,30.529C51.884,30.795 52.062,31.422 52.131,31.587C52.198,31.767 52.473,32.464 52.59,32.653C52.682,32.831 53.008,33.442 53.163,33.663C53.283,33.847 53.71,34.467 53.843,34.628C53.894,34.698 54.204,35.106 54.325,35.271C54.445,35.435 55.151,36.36 55.284,36.54C55.417,36.72 56.224,37.816 56.375,38.056C56.527,38.297 56.866,38.746 57.167,39.246C57.467,39.746 57.92,40.509 58.053,40.775C58.186,41.041 58.6,41.864 58.711,42.221C58.813,42.49 58.993,42.956 59.104,43.396C59.158,43.582 59.306,44.19 59.344,44.459C59.382,44.728 59.493,45.39 59.484,45.925C59.474,46.412 59.449,46.922 59.325,47.355C59.202,47.789 59.082,48.08 58.949,48.32C58.879,48.441 58.651,48.855 58.256,49.248C58.006,49.488 57.841,49.647 57.597,49.811C57.464,49.897 57.208,50.08 56.689,50.238C56.588,50.261 56.141,50.403 55.451,50.324C55.303,50.302 54.572,50.172 54.388,50.112C54.239,50.074 53.644,49.906 53.562,49.878C53.48,49.849 53.122,49.713 53.068,49.7C53.014,49.688 52.875,49.643 52.752,49.745C52.657,49.833 52.593,49.954 52.593,49.954C52.593,49.954 51.739,51.371 51.59,51.549C51.52,51.641 51.505,51.717 51.495,51.748C51.486,51.78 51.482,51.84 51.52,51.894C51.558,51.948 51.584,51.976 51.656,52.017C51.729,52.058 52.131,52.264 52.334,52.337C52.536,52.41 53.115,52.612 53.578,52.723C54.04,52.834 54.654,52.96 54.983,52.995C55.312,53.03 55.866,53.081 56.249,53.065C56.632,53.049 57.046,53.021 57.442,52.951C57.838,52.881 58.493,52.71 58.851,52.558C59.208,52.407 59.563,52.274 60.249,51.843C60.455,51.713 60.917,51.4 61.107,51.254C61.297,51.109 61.705,50.789 61.769,50.729C61.832,50.669 62.209,50.327 62.446,49.975C62.683,49.624 62.905,49.235 63.025,48.95C63.117,48.735 63.307,48.206 63.364,47.994C63.421,47.782 63.528,47.328 63.57,46.98C63.614,46.679 63.674,46.074 63.68,45.839C63.687,45.605 63.703,45.358 63.699,45.247C63.696,45.137 63.693,44.58 63.652,44.193C63.62,43.852 63.56,43.313 63.414,42.706C63.269,42.098 63.212,41.965 63.164,41.835C63.117,41.706 62.943,41.228 62.756,40.857C62.57,40.487 62.218,39.826 61.917,39.367C61.743,39.066 61.424,38.569 61.335,38.449C61.278,38.351 61.044,38.009 60.933,37.844C60.822,37.68 60.594,37.322 60.43,37.107C60.335,36.955 60.142,36.689 60.104,36.632C60.066,36.575 59.069,35.132 59.069,35.132L58.392,34.138C58.392,34.138 57.432,32.676 57.395,32.613C57.356,32.549 56.86,31.726 56.803,31.625C56.746,31.524 56.078,30.299 56.015,30.144C55.951,29.989 55.663,29.166 55.644,28.843C55.625,28.52 55.594,28.118 55.625,27.925C55.657,27.732 55.806,27.289 55.859,27.19C55.913,27.092 56.122,26.822 56.296,26.657C56.47,26.493 56.565,26.398 56.885,26.202C57.062,26.107 57.167,26.034 57.42,25.952C57.673,25.869 57.983,25.809 58.224,25.822C58.341,25.828 58.708,25.831 59.05,25.917C59.392,26.002 59.651,26.069 59.882,26.17C60.113,26.272 60.313,26.376 60.392,26.373C60.471,26.37 60.547,26.347 60.61,26.281C60.673,26.215 60.683,26.196 60.713,26.146Z" style="fill:rgb(255,199,0);fill-rule:nonzero;"/>
            </g>
        </g>
        <g transform="matrix(1,0,0,1,0,1.90983)">
            <text x="91.851px" y="103.241px" style="font-family:'Inter-Regular_SemiBold', 'Inter';font-size:62.436px;">Icons</text>
        </g>
    </g>
</svg>
