<svg width="16" height="15" viewBox="0 0 16 15" fill="none" xmlns="http://www.w3.org/2000/svg">
<g id="close" filter="url(#filter0_d_101_5463)">
<path id="Shape" d="M3.94925 1.21777C4.4554 1.02796 5.45718 1.14395 5.7208 1.71338C5.98443 2.28281 6.1426 3.02096 6.15315 2.8417C6.13297 2.29684 6.179 1.75154 6.29023 1.21777C6.40744 0.875917 6.67598 0.607373 7.01783 0.490166C7.33135 0.391013 7.66423 0.369303 7.98797 0.426896C8.3153 0.494276 8.60522 0.682535 8.79994 0.954145C9.04663 1.56906 9.18575 2.22181 9.21119 2.88388C9.23742 2.31893 9.33304 1.75936 9.49591 1.21777C9.67212 0.969487 9.92944 0.790477 10.2235 0.71161C10.5721 0.647871 10.9294 0.647871 11.278 0.71161C11.5642 0.806577 11.8144 0.986894 11.9951 1.22831C12.219 1.78736 12.3542 2.37798 12.3958 2.97878C12.3958 3.12641 12.4696 2.56753 12.7016 2.19845C12.8879 1.64519 13.4875 1.34776 14.0408 1.53412C14.5941 1.72048 14.8915 2.32007 14.7051 2.87333C14.7051 3.55876 14.7051 3.52712 14.7051 3.9911C14.7051 4.45508 14.7051 4.86633 14.7051 5.2565C14.6671 5.87361 14.5825 6.48697 14.452 7.09132C14.269 7.62628 14.0136 8.13365 13.6928 8.59926C13.1809 9.16875 12.7579 9.8122 12.438 10.5079C12.3599 10.8538 12.3245 11.2079 12.3325 11.5624C12.3314 11.89 12.374 12.2162 12.459 12.5325C12.0279 12.5786 11.5931 12.5786 11.162 12.5325C10.7508 12.4693 10.2446 11.6468 10.1075 11.3937C10.0397 11.2578 9.90086 11.1719 9.74899 11.1719C9.59711 11.1719 9.45828 11.2578 9.39046 11.3937C9.15847 11.7944 8.64176 12.522 8.33596 12.5642C7.62944 12.6485 6.16369 12.5642 5.02483 12.5642C5.02483 12.5642 5.22519 11.5097 4.7823 11.1301C4.33941 10.7504 3.90707 10.3075 3.58017 10.0123L2.70494 9.04214C2.08773 8.46921 1.63608 7.74074 1.39736 6.93315C1.17592 5.94192 1.19701 5.4674 1.39736 5.06669C1.60171 4.73579 1.9208 4.49178 2.29368 4.38126C2.60346 4.32507 2.92236 4.34681 3.22164 4.44453C3.42861 4.53118 3.60747 4.67354 3.73835 4.85579C3.98088 5.18268 4.06524 5.34086 3.95979 4.98233C3.85434 4.6238 3.62235 4.36017 3.50636 3.92783C3.28054 3.41724 3.14496 2.87136 3.10565 2.31445C3.14886 1.81479 3.49773 1.39446 3.98088 1.25995" fill="white"/>
<path id="Shape_2" fill-rule="evenodd" clip-rule="evenodd" d="M3.94925 1.21777C4.4554 1.02796 5.45718 1.14395 5.7208 1.71338C5.98443 2.28281 6.1426 3.02096 6.15315 2.8417C6.13297 2.29684 6.179 1.75154 6.29023 1.21777C6.40744 0.875917 6.67598 0.607373 7.01783 0.490166C7.33135 0.391013 7.66423 0.369303 7.98797 0.426896C8.3153 0.494276 8.60522 0.682535 8.79994 0.954145C9.04663 1.56906 9.18575 2.22181 9.21119 2.88388C9.23742 2.31893 9.33304 1.75936 9.49591 1.21777C9.67212 0.969487 9.92944 0.790477 10.2235 0.71161C10.5721 0.647871 10.9294 0.647871 11.278 0.71161C11.5642 0.806577 11.8144 0.986894 11.9951 1.22831C12.219 1.78736 12.3542 2.37798 12.3958 2.97878C12.3958 3.12641 12.4696 2.56753 12.7016 2.19845C12.8879 1.64519 13.4875 1.34776 14.0408 1.53412C14.5941 1.72048 14.8915 2.32007 14.7051 2.87333C14.7051 3.55876 14.7051 3.52712 14.7051 3.9911C14.7051 4.45508 14.7051 4.86633 14.7051 5.2565C14.6671 5.87361 14.5825 6.48697 14.452 7.09132C14.269 7.62628 14.0136 8.13365 13.6928 8.59926C13.1809 9.16875 12.7579 9.8122 12.438 10.5079C12.3599 10.8538 12.3245 11.2079 12.3325 11.5624C12.3314 11.89 12.374 12.2162 12.459 12.5325C12.0279 12.5786 11.5931 12.5786 11.162 12.5325C10.7508 12.4693 10.2446 11.6468 10.1075 11.3937C10.0397 11.2578 9.90086 11.1719 9.74899 11.1719C9.59711 11.1719 9.45828 11.2578 9.39046 11.3937C9.15847 11.7944 8.64176 12.522 8.33596 12.5642C7.62944 12.6485 6.16369 12.5642 5.02483 12.5642C5.02483 12.5642 5.22519 11.5097 4.7823 11.1301C4.33941 10.7504 3.90707 10.3075 3.58017 10.0123L2.70494 9.04214C2.08773 8.46921 1.63608 7.74074 1.39736 6.93315C1.17592 5.94192 1.19701 5.4674 1.39736 5.06669C1.60171 4.73579 1.9208 4.49178 2.29368 4.38126C2.60346 4.32507 2.92236 4.34681 3.22164 4.44453C3.4286 4.53118 3.60747 4.67354 3.73835 4.85579C3.98088 5.18268 4.06524 5.34086 3.95979 4.98233C3.85434 4.6238 3.62235 4.36017 3.50636 3.92783C3.28054 3.41724 3.14496 2.87136 3.10565 2.31445C3.12721 1.80748 3.46477 1.36865 3.94925 1.21777Z" stroke="#0A090B" stroke-width="0.75" stroke-linejoin="round"/>
<path id="Shape_3" d="M12.1216 9.31203V5.67214C12.1216 5.45426 11.9445 5.27764 11.7261 5.27764C11.5077 5.27764 11.3307 5.45426 11.3307 5.67214V9.31203C11.3307 9.52991 11.5077 9.70653 11.7261 9.70653C11.9445 9.70653 12.1216 9.52991 12.1216 9.31203Z" fill="#0A090B"/>
<path id="Shape_4" d="M10.0337 9.3107L10.0126 5.66893C10.0113 5.45158 9.83326 5.27639 9.61487 5.27765C9.39648 5.2789 9.22046 5.45612 9.22172 5.67347L9.24281 9.31524C9.24406 9.53259 9.42212 9.70778 9.64051 9.70652C9.8589 9.70527 10.0349 9.52806 10.0337 9.3107Z" fill="#0A090B"/>
<path id="Shape_5" d="M7.11272 5.67825L7.13381 9.31058C7.13509 9.53054 7.31316 9.70781 7.53155 9.70652C7.74994 9.70524 7.92595 9.52588 7.92467 9.30592L7.90358 5.67359C7.9023 5.45363 7.72423 5.27636 7.50584 5.27765C7.28745 5.27893 7.11144 5.45829 7.11272 5.67825Z" fill="#0A090B"/>
</g>
<defs>
<filter id="filter0_d_101_5463" x="5.14766e-05" y="0" width="15.9999" height="14.8952" filterUnits="userSpaceOnUse" color-interpolation-filters="sRGB">
<feFlood flood-opacity="0" result="BackgroundImageFix"/>
<feColorMatrix in="SourceAlpha" type="matrix" values="0 0 0 0 0 0 0 0 0 0 0 0 0 0 0 0 0 0 127 0" result="hardAlpha"/>
<feOffset dy="1"/>
<feGaussianBlur stdDeviation="0.4"/>
<feColorMatrix type="matrix" values="0 0 0 0 0 0 0 0 0 0 0 0 0 0 0 0 0 0 0.5 0"/>
<feBlend mode="normal" in2="BackgroundImageFix" result="effect1_dropShadow_101_5463"/>
<feBlend mode="normal" in="SourceGraphic" in2="effect1_dropShadow_101_5463" result="shape"/>
</filter>
</defs>
</svg>
