<svg width="18" height="18" viewBox="0 0 18 18" fill="none" xmlns="http://www.w3.org/2000/svg">
<g id="open" filter="url(#filter0_d_101_5453)">
<path id="Shape" d="M5.24732 8.43755C5.1456 8.06118 5.04388 7.57292 4.83027 6.86088C4.61666 6.14884 4.48442 5.98609 4.35218 5.60972C4.21995 5.23335 4.04702 4.87733 3.84358 4.40942C3.65723 3.93139 3.50096 3.44218 3.37567 2.94464C3.291 2.52535 3.39517 2.09005 3.66049 1.75451C4.02552 1.39831 4.55225 1.26275 5.04388 1.39849C5.42905 1.56693 5.75498 1.84681 5.97971 2.20208C6.27982 2.68187 6.52547 3.19364 6.7121 3.72789C6.99869 4.4599 7.20669 5.22029 7.33259 5.99626L7.42414 6.454C7.42414 6.454 7.42414 5.31473 7.42414 5.27404C7.42414 4.25684 7.36311 3.42273 7.42414 2.28346C7.42414 2.15122 7.48517 1.68331 7.50552 1.55107C7.53182 1.11364 7.79249 0.724574 8.18705 0.533869C8.63999 0.330646 9.15819 0.330646 9.61113 0.533869C10.0166 0.715371 10.2872 1.10759 10.313 1.55107C10.313 1.66297 10.4046 2.56828 10.4046 2.68017C10.4046 3.69738 10.4046 4.34839 10.4046 4.88751C10.4046 5.12146 10.4046 6.54555 10.4046 6.3828C10.4285 5.04055 10.5441 3.70151 10.7504 2.37501C10.8709 1.95942 11.1634 1.61517 11.554 1.42901C12.0371 1.23873 12.5859 1.33282 12.9781 1.67314C13.2712 1.99487 13.4438 2.40826 13.4663 2.84292C13.4663 3.25998 13.4663 3.75841 13.4663 4.11443C13.4663 4.9994 13.4663 5.45714 13.4663 6.2709C13.4663 6.2709 13.4663 6.57606 13.4663 6.454C13.5579 6.16918 13.6596 5.90471 13.741 5.70127C13.8224 5.49783 13.9851 5.08077 14.1072 4.82647C14.2314 4.58403 14.3707 4.34962 14.5242 4.1246C14.6838 3.86596 14.9229 3.66607 15.2058 3.55497C15.4605 3.45648 15.7442 3.46459 15.9929 3.57747C16.2416 3.69036 16.4345 3.89852 16.5281 4.15512C16.5887 4.52563 16.5887 4.90352 16.5281 5.27404C16.4603 5.8431 16.3412 6.40485 16.1721 6.95243C16.0399 7.41017 15.8975 8.20359 15.8263 8.57996C15.755 8.95632 15.5923 9.9837 15.4601 10.4313C15.2643 10.9652 14.9937 11.4686 14.6565 11.9266C14.1629 12.4761 13.7549 13.0968 13.446 13.7677C13.37 14.1012 13.3358 14.4429 13.3443 14.7849C13.3426 15.1009 13.3837 15.4157 13.4663 15.7207C13.0505 15.7651 12.6311 15.7651 12.2152 15.7207C11.8185 15.6597 11.3302 14.8663 11.198 14.6222C11.1325 14.4911 10.9986 14.4082 10.8521 14.4082C10.7056 14.4082 10.5717 14.4911 10.5063 14.6222C10.2723 15.0087 9.78406 15.7106 9.43821 15.7512C8.75668 15.8326 7.35294 15.7512 6.24419 15.7512C6.24419 15.7512 6.43745 14.734 6.01023 14.3679C5.583 14.0017 5.16595 13.5744 4.85061 13.2896L4.00634 12.3538C3.72152 11.9876 3.3655 11.245 2.745 10.3194C2.38898 9.81077 1.7278 9.21062 1.44298 8.71219C1.20386 8.30768 1.13439 7.82502 1.24971 7.36948C1.42244 6.76462 2.02346 6.38733 2.64328 6.49469C3.11476 6.52576 3.56071 6.71996 3.90461 7.04398C4.17693 7.2796 4.4319 7.53456 4.66752 7.80688C4.83027 8.00015 4.87096 8.0917 5.05406 8.32566C5.23715 8.55961 5.35922 8.79357 5.26767 8.44772" fill="white"/>
<path id="Shape_2" d="M5.24732 8.43755C5.1456 8.06118 5.04388 7.57292 4.83027 6.86088C4.61666 6.14884 4.48442 5.98609 4.35218 5.60972C4.21995 5.23335 4.04702 4.87733 3.84358 4.40942C3.65723 3.93139 3.50096 3.44218 3.37567 2.94464C3.291 2.52535 3.39517 2.09005 3.66049 1.75451C4.02552 1.39831 4.55225 1.26275 5.04388 1.39849C5.42905 1.56693 5.75498 1.84681 5.97971 2.20208C6.27982 2.68187 6.52547 3.19364 6.7121 3.72789C6.99869 4.4599 7.20669 5.22029 7.33259 5.99626L7.42414 6.454C7.42414 6.454 7.42414 5.31473 7.42414 5.27404C7.42414 4.25684 7.36311 3.42273 7.42414 2.28346C7.42414 2.15122 7.48517 1.68331 7.50552 1.55107C7.53182 1.11364 7.79249 0.724574 8.18705 0.533869C8.63999 0.330646 9.15819 0.330646 9.61113 0.533869C10.0166 0.715371 10.2872 1.10759 10.313 1.55107C10.313 1.66297 10.4046 2.56828 10.4046 2.68017C10.4046 3.69738 10.4046 4.34839 10.4046 4.88751C10.4046 5.12146 10.4046 6.54555 10.4046 6.3828C10.4285 5.04055 10.5441 3.70151 10.7504 2.37501C10.8709 1.95942 11.1634 1.61517 11.554 1.42901C12.0371 1.23873 12.5859 1.33282 12.9781 1.67314C13.2712 1.99487 13.4438 2.40826 13.4663 2.84292C13.4663 3.25998 13.4663 3.75841 13.4663 4.11443C13.4663 4.9994 13.4663 5.45714 13.4663 6.2709C13.4663 6.2709 13.4663 6.57606 13.4663 6.454C13.5579 6.16918 13.6596 5.90471 13.741 5.70127C13.8224 5.49783 13.9851 5.08077 14.1072 4.82647C14.2314 4.58403 14.3707 4.34962 14.5242 4.1246C14.6838 3.86596 14.9229 3.66607 15.2058 3.55497C15.4605 3.45648 15.7442 3.46459 15.9929 3.57747C16.2416 3.69036 16.4345 3.89852 16.5281 4.15512C16.5887 4.52563 16.5887 4.90353 16.5281 5.27404C16.4603 5.8431 16.3412 6.40485 16.1721 6.95243C16.0399 7.41017 15.8975 8.20359 15.8263 8.57996C15.755 8.95632 15.5923 9.9837 15.4601 10.4313C15.2643 10.9652 14.9937 11.4686 14.6565 11.9266C14.1629 12.4761 13.7549 13.0968 13.446 13.7677C13.37 14.1012 13.3358 14.4429 13.3443 14.7849C13.3426 15.1009 13.3837 15.4157 13.4663 15.7207C13.0505 15.7651 12.6311 15.7651 12.2152 15.7207C11.8185 15.6597 11.3302 14.8663 11.198 14.6222C11.1325 14.4911 10.9986 14.4082 10.8521 14.4082C10.7056 14.4082 10.5717 14.4911 10.5063 14.6222C10.2723 15.0087 9.78406 15.7106 9.43821 15.7512C8.75668 15.8326 7.35294 15.7512 6.24419 15.7512C6.24419 15.7512 6.43745 14.734 6.01023 14.3679C5.583 14.0017 5.16595 13.5744 4.85061 13.2896L4.00634 12.3538C3.72152 11.9876 3.3655 11.245 2.745 10.3194C2.38898 9.81077 1.7278 9.21062 1.44298 8.71219C1.20386 8.30768 1.13439 7.82502 1.24971 7.36948C1.42244 6.76462 2.02346 6.38733 2.64328 6.49469C3.11476 6.52576 3.56071 6.71996 3.90461 7.04398C4.17693 7.2796 4.4319 7.53456 4.66752 7.80688C4.83027 8.00015 4.87096 8.0917 5.05406 8.32566C5.23715 8.55961 5.35922 8.79357 5.26767 8.44772" stroke="#0A090B" stroke-width="0.75" stroke-linecap="round" stroke-linejoin="round"/>
<path id="Shape_3" d="M12.7441 12.6701V9.1589C12.7441 8.94873 12.5733 8.77836 12.3627 8.77836C12.152 8.77836 11.9812 8.94873 11.9812 9.1589V12.6701C11.9812 12.8802 12.152 13.0506 12.3627 13.0506C12.5733 13.0506 12.7441 12.8802 12.7441 12.6701Z" fill="#0A090B"/>
<path id="Shape_4" d="M10.7199 12.6699L10.7097 9.15691C10.7091 8.94723 10.5378 8.77775 10.3272 8.77836C10.1165 8.77896 9.94619 8.94942 9.9468 9.15909L9.95697 12.6721C9.95758 12.8817 10.1289 13.0512 10.3395 13.0506C10.5502 13.05 10.7205 12.8795 10.7199 12.6699Z" fill="#0A090B"/>
<path id="Shape_5" d="M7.91761 9.15958L7.93796 12.6634C7.93919 12.8756 8.11097 13.0466 8.32163 13.0454C8.5323 13.0442 8.70208 12.8711 8.70085 12.659L8.6805 9.15509C8.67927 8.94291 8.50749 8.77191 8.29683 8.77315C8.08616 8.77439 7.91638 8.9474 7.91761 9.15958Z" fill="#0A090B"/>
</g>
<defs>
<filter id="filter0_d_101_5453" x="4.96561e-05" y="0" width="17.7687" height="18" filterUnits="userSpaceOnUse" color-interpolation-filters="sRGB">
<feFlood flood-opacity="0" result="BackgroundImageFix"/>
<feColorMatrix in="SourceAlpha" type="matrix" values="0 0 0 0 0 0 0 0 0 0 0 0 0 0 0 0 0 0 127 0" result="hardAlpha"/>
<feOffset dy="1"/>
<feGaussianBlur stdDeviation="0.4"/>
<feColorMatrix type="matrix" values="0 0 0 0 0 0 0 0 0 0 0 0 0 0 0 0 0 0 0.5 0"/>
<feBlend mode="normal" in2="BackgroundImageFix" result="effect1_dropShadow_101_5453"/>
<feBlend mode="normal" in="SourceGraphic" in2="effect1_dropShadow_101_5453" result="shape"/>
</filter>
</defs>
</svg>
