<svg width="24" height="24" viewBox="0 0 24 24" fill="none" xmlns="http://www.w3.org/2000/svg">
<g id="paint-bucket-02">
<path id="Icon" d="M17.9133 11.3593C17.927 11.8873 17.7323 12.4197 17.3294 12.8227L12.1684 17.9837C11.3889 18.7631 10.1252 18.7631 9.34571 17.9837L4.18469 12.8227C3.78174 12.4197 3.5871 11.8873 3.60077 11.3593M17.9133 11.3593C17.9017 10.9103 17.7394 10.4644 17.4264 10.104C17.3902 10.0245 17.3395 9.95004 17.2741 9.88464L10.8478 3.4584M17.9133 11.3593H3.60077M3.60077 11.3593C3.61355 10.866 3.80819 10.3765 4.18469 10C4.31739 9.8673 10.8478 3.4584 10.8478 3.4584M10.8478 3.4584L9.78935 2.3999M4.61062 21.5999H15.2211M19.5496 15.1936C19.4868 15.0944 19.3792 15.0313 19.2626 15.0313C19.1459 15.0313 19.0383 15.0945 18.9755 15.1936C18.7512 15.5632 18.0247 16.8254 18.0247 17.3753C18.0247 18.0604 18.5808 18.6194 19.2626 18.6194C19.9443 18.6194 20.5004 18.0605 20.5004 17.3753C20.5004 16.8164 19.7739 15.5632 19.5496 15.1936Z" stroke="black" stroke-width="2" stroke-linecap="round" stroke-linejoin="round"/>
</g>
</svg>
