<svg width="17" height="18" viewBox="0 0 17 18" fill="none" xmlns="http://www.w3.org/2000/svg">
<g id="pointing" filter="url(#filter0_d_101_5443)">
<path id="Shape" d="M4.11094 12.3651C3.82873 12.0023 3.47596 11.2665 2.86114 10.3493C2.50837 9.84539 1.64158 8.88789 1.37953 8.39401C1.19062 8.09389 1.1358 7.72845 1.22834 7.38611C1.38654 6.73522 2.00398 6.30344 2.66964 6.37821C3.18448 6.48163 3.65761 6.73397 4.03031 7.1039C4.29053 7.349 4.52989 7.61533 4.74592 7.90014C4.90718 8.10172 4.9475 8.18236 5.12892 8.41417C5.31034 8.64599 5.43129 8.87781 5.34058 8.53512C5.27002 8.03117 5.14908 7.18453 4.97773 6.42861C4.84671 5.8541 4.81647 5.76339 4.69552 5.32999C4.57457 4.8966 4.50402 4.53375 4.37299 4.03988C4.25322 3.55465 4.15902 3.06346 4.09078 2.56834C3.96374 1.93508 4.05616 1.27744 4.35283 0.703726C4.70499 0.372499 5.22158 0.285076 5.66311 0.481987C6.10718 0.809894 6.43829 1.2678 6.61053 1.79226C6.87467 2.43771 7.05095 3.1157 7.13464 3.80806C7.29591 4.81596 7.60836 6.2875 7.61844 6.58987C7.61844 6.21695 7.54788 5.43078 7.61844 5.07802C7.68834 4.71026 7.94395 4.40505 8.29373 4.2717C8.59389 4.1796 8.91142 4.15889 9.221 4.21122C9.53349 4.27655 9.81028 4.45629 9.99708 4.71517C10.2306 5.30318 10.3602 5.92727 10.3801 6.55963C10.4071 6.00588 10.5019 5.45752 10.6623 4.92683C10.8307 4.68952 11.0767 4.51842 11.3578 4.44304C11.691 4.38212 12.0324 4.38212 12.3657 4.44304C12.6389 4.53439 12.8779 4.70662 13.051 4.93691C13.2645 5.47145 13.3937 6.03587 13.434 6.61003C13.434 6.75114 13.5046 6.21695 13.7263 5.86418C13.8415 5.5221 14.1305 5.26747 14.4844 5.19622C14.8383 5.12497 15.2033 5.24792 15.4419 5.51875C15.6805 5.78958 15.7566 6.16715 15.6413 6.50924C15.6413 7.16437 15.6413 7.13414 15.6413 7.57761C15.6413 8.02109 15.6413 8.41417 15.6413 8.7871C15.6046 9.3769 15.5237 9.96312 15.3994 10.5408C15.224 11.052 14.9799 11.5369 14.6737 11.9821C14.1844 12.5264 13.78 13.1414 13.4743 13.8064C13.3985 14.1368 13.3646 14.4755 13.3736 14.8143C13.3725 15.1274 13.4132 15.4393 13.4945 15.7416C13.0824 15.7852 12.6669 15.7852 12.2548 15.7416C11.8617 15.6811 11.3779 14.895 11.2469 14.6531C11.1821 14.5232 11.0494 14.4411 10.9042 14.4411C10.759 14.4411 10.6263 14.5232 10.5615 14.6531C10.3398 15.0361 9.8459 15.7315 9.50321 15.7719C8.82792 15.8525 7.43701 15.7719 6.3384 15.7719C6.3384 15.7719 6.51982 14.764 6.10658 14.4011C5.69334 14.0383 5.27003 13.6149 4.95758 13.3327L4.11094 12.3651Z" fill="white"/>
<path id="Shape_2" fill-rule="evenodd" clip-rule="evenodd" d="M4.11094 12.3651C3.82873 12.0023 3.47596 11.2665 2.86114 10.3493C2.50837 9.84539 1.64158 8.88789 1.37953 8.39401C1.19062 8.09389 1.1358 7.72845 1.22834 7.38611C1.38654 6.73522 2.00398 6.30344 2.66964 6.37821C3.18448 6.48163 3.65761 6.73397 4.03031 7.1039C4.29053 7.349 4.52989 7.61533 4.74592 7.90014C4.90718 8.10172 4.9475 8.18236 5.12892 8.41417C5.31034 8.64599 5.43129 8.87781 5.34058 8.53512C5.27002 8.03117 5.14908 7.18453 4.97773 6.42861C4.84671 5.8541 4.81647 5.76339 4.69552 5.32999C4.57457 4.8966 4.50402 4.53375 4.37299 4.03988C4.25322 3.55465 4.15902 3.06346 4.09078 2.56834C3.96374 1.93508 4.05616 1.27744 4.35283 0.703726C4.70499 0.372499 5.22158 0.285076 5.66311 0.481987C6.10718 0.809894 6.43829 1.2678 6.61053 1.79226C6.87467 2.43771 7.05095 3.1157 7.13464 3.80806C7.29591 4.81596 7.60836 6.2875 7.61844 6.58987C7.61844 6.21695 7.54788 5.43078 7.61844 5.07802C7.68834 4.71026 7.94395 4.40505 8.29373 4.2717C8.59389 4.1796 8.91142 4.15889 9.221 4.21122C9.53349 4.27655 9.81028 4.45629 9.99708 4.71517C10.2306 5.30318 10.3602 5.92727 10.3801 6.55963C10.4071 6.00588 10.5019 5.45752 10.6623 4.92683C10.8307 4.68952 11.0767 4.51842 11.3578 4.44304C11.691 4.38212 12.0324 4.38212 12.3657 4.44304C12.6389 4.53439 12.8779 4.70662 13.051 4.93691C13.2645 5.47145 13.3937 6.03587 13.434 6.61003C13.434 6.75114 13.5046 6.21695 13.7263 5.86418C13.8415 5.5221 14.1305 5.26747 14.4844 5.19622C14.8383 5.12497 15.2033 5.24792 15.4419 5.51875C15.6805 5.78958 15.7566 6.16715 15.6413 6.50924C15.6413 7.16437 15.6413 7.13414 15.6413 7.57761C15.6413 8.02109 15.6413 8.41417 15.6413 8.7871C15.6046 9.3769 15.5237 9.96312 15.3994 10.5408C15.224 11.052 14.9799 11.5369 14.6737 11.9821C14.1844 12.5264 13.78 13.1414 13.4743 13.8064C13.3985 14.1368 13.3646 14.4755 13.3736 14.8143C13.3725 15.1274 13.4132 15.4393 13.4945 15.7416C13.0824 15.7852 12.6669 15.7852 12.2548 15.7416C11.8617 15.6811 11.3779 14.895 11.2469 14.6531C11.1821 14.5232 11.0494 14.4411 10.9042 14.4411C10.759 14.4411 10.6263 14.5232 10.5615 14.6531C10.3398 15.0361 9.8459 15.7315 9.50321 15.7719C8.82792 15.8525 7.43701 15.7719 6.3384 15.7719C6.3384 15.7719 6.51982 14.764 6.10658 14.4011C5.69334 14.0383 5.27003 13.6149 4.95758 13.3327L4.11094 12.3651Z" stroke="#0A090B" stroke-width="0.75" stroke-linecap="round" stroke-linejoin="round"/>
<path id="Shape_3" d="M12.6578 12.9154V9.43637C12.6578 9.22812 12.4886 9.0593 12.2799 9.0593C12.0711 9.0593 11.9019 9.22812 11.9019 9.43637V12.9154C11.9019 13.1237 12.0711 13.2925 12.2799 13.2925C12.4886 13.2925 12.6578 13.1237 12.6578 12.9154Z" fill="#0A090B"/>
<path id="Shape_4" d="M10.6622 12.9141L10.642 9.43331C10.6408 9.22556 10.4706 9.05811 10.2619 9.05931C10.0531 9.06051 9.8849 9.22989 9.8861 9.43764L9.90626 12.9185C9.90746 13.1262 10.0777 13.2937 10.2864 13.2925C10.4951 13.2913 10.6634 13.1219 10.6622 12.9141Z" fill="#0A090B"/>
<path id="Shape_5" d="M7.8703 9.44129L7.89046 12.9149C7.89168 13.1247 8.06188 13.2937 8.27062 13.2925C8.47936 13.2913 8.64759 13.1202 8.64637 12.9105L8.62621 9.43686C8.625 9.22712 8.45479 9.05809 8.24605 9.05931C8.03731 9.06053 7.86908 9.23155 7.8703 9.44129Z" fill="#0A090B"/>
</g>
<defs>
<filter id="filter0_d_101_5443" x="4.92019e-05" y="0" width="16.8786" height="18" filterUnits="userSpaceOnUse" color-interpolation-filters="sRGB">
<feFlood flood-opacity="0" result="BackgroundImageFix"/>
<feColorMatrix in="SourceAlpha" type="matrix" values="0 0 0 0 0 0 0 0 0 0 0 0 0 0 0 0 0 0 127 0" result="hardAlpha"/>
<feOffset dy="1"/>
<feGaussianBlur stdDeviation="0.4"/>
<feColorMatrix type="matrix" values="0 0 0 0 0 0 0 0 0 0 0 0 0 0 0 0 0 0 0.5 0"/>
<feBlend mode="normal" in2="BackgroundImageFix" result="effect1_dropShadow_101_5443"/>
<feBlend mode="normal" in="SourceGraphic" in2="effect1_dropShadow_101_5443" result="shape"/>
</filter>
</defs>
</svg>
