<svg width="24" height="24" viewBox="0 0 24 24" fill="none" xmlns="http://www.w3.org/2000/svg">
<g id="scissors-04">
<path id="Icon" d="M8.5799 8.5799L21.5999 19.1999M21.5999 4.7999L8.5799 15.4199M5.9999 9.5999C4.01168 9.5999 2.3999 7.98813 2.3999 5.9999C2.3999 4.01168 4.01168 2.3999 5.9999 2.3999C7.98813 2.3999 9.5999 4.01168 9.5999 5.9999C9.5999 7.98813 7.98813 9.5999 5.9999 9.5999ZM5.9999 21.5999C4.01168 21.5999 2.3999 19.9881 2.3999 17.9999C2.3999 16.0117 4.01168 14.3999 5.9999 14.3999C7.98813 14.3999 9.5999 16.0117 9.5999 17.9999C9.5999 19.9881 7.98813 21.5999 5.9999 21.5999Z" stroke="black" stroke-width="2" stroke-linecap="round" stroke-linejoin="round"/>
</g>
</svg>
