<svg xmlns="http://www.w3.org/2000/svg" fill="none" viewBox="0 0 24 24" stroke-width="1.5" stroke="currentColor" aria-hidden="true" data-slot="icon">
  <path fill="#000" d="M7.583 12.296a1 1 0 0 0 1.28 1.536zM12.2 9.749l.64-.768a1 1 0 0 0-1.28 0zm3.338 4.083a1 1 0 0 0 1.28-1.536zm-6.675 0 3.978-3.314-1.28-1.537-3.978 3.315zm2.697-3.314 3.978 3.314 1.28-1.536-3.977-3.315zM20 12a8 8 0 0 1-8 8v2c5.523 0 10-4.477 10-10zm-8 8a8 8 0 0 1-8-8H2c0 5.523 4.477 10 10 10zm-8-8a8 8 0 0 1 8-8V2C6.477 2 2 6.477 2 12zm8-8a8 8 0 0 1 8 8h2c0-5.523-4.477-10-10-10z"/>
</svg>
