<svg xmlns="http://www.w3.org/2000/svg" fill="none" viewBox="0 0 24 24" stroke-width="1.5" stroke="currentColor" aria-hidden="true" data-slot="icon">
  <path fill="#000" d="M11.643 7.183a1 1 0 0 0-1.537 1.28zm2.546 4.618.768.64a1 1 0 0 0 0-1.28zm-4.083 3.337a1 1 0 0 0 1.537 1.28zm0-6.675 3.315 3.978 1.536-1.28-3.314-3.978zm3.315 2.697-3.315 3.978 1.537 1.28 3.314-3.977zM12 4a8 8 0 0 1 8 8h2c0-5.523-4.477-10-10-10zm8 8a8 8 0 0 1-8 8v2c5.523 0 10-4.477 10-10zm-8 8a8 8 0 0 1-8-8H2c0 5.523 4.477 10 10 10zm-8-8a8 8 0 0 1 8-8V2C6.477 2 2 6.477 2 12z"/>
</svg>
