<svg xmlns="http://www.w3.org/2000/svg" fill="none" viewBox="0 0 24 24" stroke-width="1.5" stroke="currentColor" aria-hidden="true" data-slot="icon">
  <path fill="#000" d="m4.601 16.476-.82-.571zm1.09-3.373-1-.01v.01zm.023-2.039 1 .011v-.01zm13.693 5.428.831-.555zm-1.05-3.389-1-.011v.011zm.023-1.938 1 .012v-.012zm-8.256 8.204a1 1 0 1 0-1.245 1.565zm4.999 1.565a1 1 0 1 0-1.245-1.565zM3.065 6.024a1 1 0 1 0 1.87.71zM7.31 3.869a1 1 0 0 0-.988-1.738zm10.357-1.724a1 1 0 0 0-1.007 1.728zm1.395 4.57a1 1 0 0 0 1.876-.69zM5.422 17.048c.638-.916 1.27-2.28 1.27-3.944h-2c0 1.151-.44 2.124-.911 2.802zm1.27-3.932.022-2.04-2-.022-.022 2.04zm13.546 2.822c-.452-.677-.88-1.662-.88-2.834h-2c0 1.662.605 3.028 1.217 3.945zm-.88-2.822.022-1.938-2-.024-.022 1.939zm.022-1.95c0-4.312-3.223-7.96-7.379-7.96v2c2.89 0 5.38 2.584 5.38 5.96zm-.355 7.272c.768 0 1.199-.579 1.355-.98.162-.414.199-1.01-.142-1.52l-1.663 1.11a.4.4 0 0 1-.075-.21.25.25 0 0 1 .017-.107.4.4 0 0 1 .114-.151.6.6 0 0 1 .394-.142zm-12.31-7.373c0-3.32 2.447-5.86 5.286-5.86v-2c-4.105 0-7.287 3.603-7.287 7.86zm-1.737 5.373a.6.6 0 0 1 .399.145c.073.064.1.123.11.15q.018.04.015.102a.43.43 0 0 1-.08.213l-1.641-1.142c-.357.512-.322 1.117-.164 1.534.152.402.58.998 1.361.998zm14.047 0H4.978v2h14.047zM12 20a3 3 0 0 1-1.877-.63l-1.245 1.564A5 5 0 0 0 12.001 22zm1.877-.63c-.483.384-1.14.63-1.877.63v2a5 5 0 0 0 3.122-1.066zM4.935 6.734c.473-1.247 1.311-2.261 2.375-2.866l-.988-1.738c-1.509.857-2.635 2.258-3.257 3.893zM16.66 3.873a5.5 5.5 0 0 1 2.4 2.843l1.877-.692a7.5 7.5 0 0 0-3.27-3.879z"/>
</svg>
