<svg xmlns="http://www.w3.org/2000/svg" fill="none" viewBox="0 0 24 24" stroke-width="1.5" stroke="currentColor" aria-hidden="true" data-slot="icon">
  <path fill="#000" d="M2.4 1.993a1 1 0 1 0 0 2zm2.292 1 .966-.262a1 1 0 0 0-.966-.738zm3.726 13.755-.965.261a1 1 0 0 0 1.089.731zm11.463-1.433.123.992a1 1 0 0 0 .856-.79zm1.719-8.31.98.202a1 1 0 0 0-.98-1.202zm-15.821 0-.965.261zm-3.38-3.012h2.293v-2H2.4zM8.543 17.74l11.463-1.433-.248-1.984-11.463 1.433zm12.318-2.222 1.72-8.31-1.96-.406-1.719 8.31zM3.727 3.254l1.087 4.012 1.93-.523-1.086-4.012zm1.087 4.012 2.639 9.743 1.93-.523-2.639-9.743zM21.6 6.005H5.779v2h15.82zM11 20.5a.5.5 0 0 1-.5.5v2a2.5 2.5 0 0 0 2.5-2.5zm-.5.5a.5.5 0 0 1-.5-.5H8a2.5 2.5 0 0 0 2.5 2.5zm-.5-.5a.5.5 0 0 1 .5-.5v-2A2.5 2.5 0 0 0 8 20.5zm.5-.5a.5.5 0 0 1 .5.5h2a2.5 2.5 0 0 0-2.5-2.5zm8.5.5a.5.5 0 0 1-.5.5v2a2.5 2.5 0 0 0 2.5-2.5zm-.5.5a.5.5 0 0 1-.5-.5h-2a2.5 2.5 0 0 0 2.5 2.5zm-.5-.5a.5.5 0 0 1 .5-.5v-2a2.5 2.5 0 0 0-2.5 2.5zm.5-.5a.5.5 0 0 1 .5.5h2a2.5 2.5 0 0 0-2.5-2.5z"/>
</svg>
